<svg xmlns="http://www.w3.org/2000/svg" viewBox="0 0 243.19 255.45"><defs><style>.cls-1{fill:#fff;}</style></defs><g id="Layer_2" data-name="Layer 2"><g id="Layer_1-2" data-name="Layer 1"><path class="cls-1" d="M63,242c.28,1.11.11,1.53-.49,1.26a31.27,31.27,0,0,1-3.63-2.79c-2-1.68-3.33-2.77-3.84-3.27-3.29,1.13-6.34.14-9.78-2.2-5.55-3.78-11.74-10.43-19.69-18.73-7.65-8-15.4-16.39-20.73-26.12S-1.37,172,2.09,164.33c3.57-7.88,10.77-13.24,20.1-14.8a21.67,21.67,0,0,1,13.08,1.63c4.51,2.12,8.16,5.85,11,11.14a7.19,7.19,0,0,1,.94,2.38c.12,1.58-.91,5.4-2.85,10.88s-3.11,7.95-3.82,8a14.08,14.08,0,0,1-2.31-2.71,23.45,23.45,0,0,0-4.93-4.91,12.2,12.2,0,0,0-7.5-2.45c-4.21.09-7.11,2.4-8.37,6.52-1.15,3.79-.73,8.36,1.33,13.85a48.17,48.17,0,0,0,8.51,14.45c3.45,4.08,6.86,6.9,10.42,8.18a8.07,8.07,0,0,0,6.84-.49c-.43-1.32-1.53-4.72-3.24-10.28-1.32-4.3-2.26-7.84-2.82-10.54-.16-.8-.09-1.27.22-1.42a1.06,1.06,0,0,1,.6-.08,30.31,30.31,0,0,1,3.52.57,24.61,24.61,0,0,0,3.56.53,28.15,28.15,0,0,0,3.76-.21c1.67-.19,2.93-.3,3.78-.31.66,0,1.08.78,1.27,2.34.27,2.27.62,5.69,1.11,10.14s.93,7.68,1.27,9.82c.92,5.74,2.61,14.25,5.23,24.84C62.85,241.63,62.88,241.76,63,242Z"/><path class="cls-1" d="M107.55,211.17c0,10.24-.08,21.11-2.64,31.14-2.84,9.64-9.17,13.5-18.87,11.1a24.26,24.26,0,0,1-10.18-5c-3.94-3.4-7-8.34-9-14.9-1-3.22-2.14-8.73-3.16-17-.23-1.92-.54-4.78-.89-8.66S62.17,201,62,199c-.56-5.7-1.5-14.36-2.6-26.32s-1.67-21.23-1.9-27.43c0-1.29.24-2.05.85-2.25,1.76-.6,4.44-1.38,8-2.45a73.47,73.47,0,0,0,7.78-2.76c.69-.3,1,.2,1.08,1.51.31,11.51.52,23,.8,34.55.25,10.86.6,21.74,1.18,32.59.45,8.32,1.22,13.73,2.18,16.58,1.3,3.89,3.57,6,6.91,6.17,4.89.22,7.1-5.22,6.82-16.68-.31-13-.76-25.94-1.21-38.9q-.72-20.56-1.44-41.15c-.06-2,.1-3.13.48-3.36.92-.55,2.47-1.65,6.14-3.73a64.49,64.49,0,0,1,8.36-4.06c.93-.35,1.42.32,1.49,2,.46,11.83.6,23.7.62,35.56,0,11.38,0,22.78,0,34.15,0,2,0,5.1.06,9.14S107.55,209.2,107.55,211.17Z"/><path class="cls-1" d="M134.34,184.08c-.6,11.64-1.28,23.29-2.2,34.92-.86,10.93-2,21.84-3.37,32.7a5.41,5.41,0,0,1-.6,2.24,4.5,4.5,0,0,1-.95.43,19.63,19.63,0,0,1-6.15,1c-3.41.12-5.6-.15-6.51-.62-.65-.34-.94-1.24-.86-2.69,0,.93.41-4,1.15-15.53,1.09-16.74,2.06-33.61,2.3-50.41.15-10.77,0-21.58-.25-32.36-.28-11.18-.68-22.36-1.06-33.52,0-1.56.29-2.45,1-2.65a38.13,38.13,0,0,1,4.57-.81c2-.25,3.58-.44,4.59-.64s2.51-.58,4.49-1.11a36.43,36.43,0,0,1,4.5-1c1-.12,1.45.62,1.48,2.22.21,11.49,0,23-.52,34.5C135.53,161.92,134.91,173,134.34,184.08Z"/><path class="cls-1" d="M197.09,183.11a139.85,139.85,0,0,1-19.77,44.44c-5.27,7.74-11.76,17.74-20.93,21.56A74.67,74.67,0,0,1,146,252.05a47.21,47.21,0,0,1-4.86.75c-2.17.23-3.82.4-4.93.56-.66.1-.88-.54-.65-1.89,1.7-10.09,3.27-20.26,4.72-30.37,1.54-10.71,2.78-21.55,3.66-32.35,1-11.79,1.44-23.7,1.68-35.44.24-12.18.18-24.54,0-36.8,0-1.52.47-2.5,1.4-2.8,2.24-.74,6.13-1.15,11.38-1.08,10,.15,16.23,1.21,19,2.15a28,28,0,0,1,16.3,14.44c3.29,6.49,5.34,15.14,6,25.28A99.68,99.68,0,0,1,197.09,183.11Zm-14.86.83c1.84-10.45,1.81-19.45-.27-26.58-2.15-7.37-5.91-11.47-11-11.6-4.68-.13-7.15,1.32-7.33,4.16-.25,4.09-.68,10.23-1.48,18.26s-1.51,13.93-2,17.83-1.17,9.57-2.26,17-2,12.94-2.72,16.6c-.49,2.67,1.28,3.71,5.23,3,4.28-.71,8.4-4.8,12.55-12C177.45,202.83,180.69,192.72,182.23,183.94Z"/><path class="cls-1" d="M221.28,202.25c-1.11,1.61-3.31,4.65-6.91,8.93-3.89,4.64-6.53,7.33-7.5,8.34-.78.81-1.34,1.37-1.67,1.68-.14.13-.33.31-.57.51a118.81,118.81,0,0,1-10.16,8.19c-1.35,1-3.35,2.4-6.09,4.14s-4.89,3-6.33,3.76c-.63.36-.58-.16.14-1.54,4.34-8.28,8.35-16.95,11.8-25.44a232.07,232.07,0,0,0,9.39-27.56,272.88,272.88,0,0,0,6.81-37.36c.57-4.79,1.18-12.17,1.42-22.15,0-.53,0-.79,0-1.32q0-2.19,1.05-1.92c1.91.48,4.75,1.35,8.27,2.59s6,2.09,7.55,2.58,3.91,1.09,6.7,1.81,4.64,1.27,5.82,1.69c.84.3,1.3,1.45,1.38,3.42a99.87,99.87,0,0,1-.3,10.34,94.59,94.59,0,0,1-1.2,10.15c-.18,1-.44,1.48-.77,1.46a2.57,2.57,0,0,1-.51-.09,78.89,78.89,0,0,0-13.48-2.9c-1.14-.13-2,.48-2.48,1.82-.22.65-.64,2.77-1.36,6.3-.76,3.69-1.12,6.11-1,7.27a1.5,1.5,0,0,0,1.72,1.47,11.65,11.65,0,0,0,1.26-.14,11.75,11.75,0,0,1,1.52-.16,44.4,44.4,0,0,0,7.54-.88c.22-.07.78-.2,1.58-.47a8.27,8.27,0,0,1,1.49-.4c.41,0,.46.47.15,1.51.29-.95-.72,2.62-4,10.34-1.53,3.55-3.13,7-4.79,10.4a2.92,2.92,0,0,1-1.38,1.54c-.81.1-1.22.14-2.07.21s-3.17.73-7.2,1.77l-3.21.79a3.21,3.21,0,0,0-2.08,1.82c-.12.25-.74,1.8-1.93,4.57-1.59,3.69-2.6,6-2.89,6.94-.52,1.67.22,2.23,2.17,1.62,0,0,1.38-.56,4.08-1.86a42.33,42.33,0,0,0,4.56-2.71c2.05-1.35,3.46-2.28,4.31-2.78C222.48,200.32,222.22,200.9,221.28,202.25Z"/><path class="cls-1" d="M37.24,43.25c-.39,1-.78,1.67-1.19,1.86-.7.31-3.38,1.13-7.72,2.66a155.18,155.18,0,0,0-13.45,60.91A194.42,194.42,0,0,0,17.2,142a4.81,4.81,0,0,1,0,2.25c-.05.13-.38.33-.93.61a19.9,19.9,0,0,1-6.18,1.54,18.06,18.06,0,0,1-6.53-.07c-.7-.21-1.19-1.12-1.42-2.65a130.9,130.9,0,0,1-.92-32.09A175.42,175.42,0,0,1,6.93,80.73,147.48,147.48,0,0,1,17.77,53.47c-3.93,2.82-6.88,4.77-8.83,5.88-.26.15-.25,0,0-.48s1.61-2.48,3.84-5.52c2.44-3.33,4-5.27,4.54-5.94,1.63-2.07,3.31-4.12,5.05-6.11,2.8-3.19,4.4-4.8,4.62-5,0,0,.1-.09.21-.2,1.3-1.11,4.16-3.46,8.69-6.85,1.28-1,4-3.15,8.08-6.4,2.2-1.74,3.32-2.58,3.33-2.59.3-.2.44-.25.42-.16a12.76,12.76,0,0,1-.67,1.29c-.68,1.24-1.66,3-2.86,5.32-1.32,2.56-2.2,4.42-2.7,5.51s-1.34,3-2.25,5.47S37.71,42,37.24,43.25Z"/><path class="cls-1" d="M74.65,127a1.43,1.43,0,0,1-.52,1.26c-.79.75-2.89,1.94-6.39,3.39a20.56,20.56,0,0,1-6.27,1.85c-.54,0-.86-.05-.95-.15a5.57,5.57,0,0,1-.8-1.74c-.75-2.36-1.83-5.9-3.11-10.63-1.66-6.13-4.09-15.44-6.09-27.25-.43-2.35-1.37-3.4-2.86-3.17.69-.1-.49.36-3.55,1.32-.34.11-.57,1.77-.56,5a171.48,171.48,0,0,0,1.24,19.65c1,8.71,2.15,15.18,2.85,19.52.18,1.09.18,1.85,0,2a5.6,5.6,0,0,1-1,.48,36.4,36.4,0,0,1-6.56,2.18c-3.45.88-5.57,1.14-6.33.92s-1.29-1.12-1.53-2.69a178.72,178.72,0,0,1-2.19-32.09,230.43,230.43,0,0,1,2.52-31.13c3-18.37,7.84-36.3,15.91-53.35.19-.4.28-.59.48-1a6.48,6.48,0,0,1,1.57-2.05,59.11,59.11,0,0,1,7.65-4.75c3-1.68,5.51-2.86,7.33-3.65,3.77-1.62,6-.39,7.24,3.77,1.39,4.69,1.17,12.61-.42,24.65-1,8-2,14.92-3.25,20.35a93.08,93.08,0,0,1-5.75,17.08,7.88,7.88,0,0,0-.82,3.06,216.3,216.3,0,0,0,4.92,22.28C71.39,117.27,74.4,125.33,74.65,127Zm-15.34-78c1-7,1.2-11.27.21-13.23-.77-1.5-2.39-1.77-4.91-.79a5.63,5.63,0,0,0-3.53,3.47,136.1,136.1,0,0,0-3.92,16.46c-.25,1.32-.59,3.28-1,5.91s-.65,4.61-.82,5.93c0,.29.27.48.92.54a10.19,10.19,0,0,0,4.08-.61C55.12,65,57.82,58.83,59.31,48.91Z"/><path class="cls-1" d="M123.65,104.86a2.39,2.39,0,0,1-.75,2.31c-.73.62-3.18,1.35-7.28,2.51-3.75,1-6.18,1.68-7.28,1.58-.92-.09-1.64-1.2-2.11-3.32-1.79-8-2.82-12.43-3.35-12.79s-4.32.75-10.25,3.42c-4,1.8-4.47,2.42-4.57,3.06a73.63,73.63,0,0,0,.26,10.26c.35,5.23.47,8.17.11,8.84s-3.35,2.85-7.56,5c-3.32,1.71-5.29,1.5-5.47-.24-2.07-19.85.53-42.54,3.76-62.65C82.3,43.31,86.75,23,93.33,3.71c.57-1.74,1-2.6,1.3-2.66A11.15,11.15,0,0,1,96.83,1a12.3,12.3,0,0,0,2.25,0,20.33,20.33,0,0,0,2.24-.51A15.18,15.18,0,0,1,103.54,0c.35,0,.55.62.63,2a328.22,328.22,0,0,0,6.44,50.73C114.11,70.08,120.62,88.43,123.65,104.86ZM94.59,35.38c-.65,2.41-1.93,7.62-3.37,16.08a127,127,0,0,0-2,16.11c0,1.05.52,1.4,1.81,1.1.65-.15,2-.54,3.69-1.12s2.51-1.27,2.67-2.22a7.86,7.86,0,0,0,.07-1.21c0-1.87-.63-6.87-1.44-14.66C95.24,41.93,94.89,37.34,94.59,35.38Z"/><path class="cls-1" d="M150.57,104.29c-3.58.09-5.65.13-6.18-.06s-1-.94-1.56-2.28q-6.65-18-12.86-36.22c-3.37-10.05-7.6-21.13-8.52-31.06-.33-3.58-.18-9.55-.11-16.65s.18-12,.22-15.16c0-1.49.23-2.21.61-2.19a45,45,0,0,1,5.18.59c2.31.37,4,.65,5.18.79.47.05.74.48.82,1.3.29,3.16.62,8,1,15s.56,13,1.09,16.57c1.63,10.87,7,22.49,11,33.41.79-5.15,1.62-11.34,2.35-18.28,1-9.36,1.13-14.6.81-16.61-.54-3.34-1.38-8.3-2.52-14.49s-2-10.48-2.56-13.28c-.21-1-.25-1.58-.11-1.66l.88.19c1,.22,2.48.45,4.41.76A34.94,34.94,0,0,1,154,5.9c.53.16.93.68,1.22,1.58.92,2.87,2.27,7.3,4,13.72S162.32,33,162.9,36.33c1.7,9.9.16,21.37-.8,31.9-1.29,11.14-2.62,22.27-4.06,33.38a8.94,8.94,0,0,1-.29,2c-.07.14-.4.26-1,.35A54.29,54.29,0,0,1,150.57,104.29Z"/><path class="cls-1" d="M211.91,89.54c.44,2.12,1.08,6,1.66,11.68.64,6.19.73,9.94.57,11.07-.12.89-.42,1.29-.86,1.18a5.35,5.35,0,0,1-1-.49c-1.59-.92-6-2.44-14.22-4.15-1.79-.38-4.46-1-8.13-1.64s-6.5-1.13-8.39-1.39c-.82-.11-1.33-.93-1.52-2.45-.77-5.9-1.85-14.83-3.53-26.28s-3.27-19.57-4.46-24.88c-2.15-9.61-4.77-19.14-7.75-28.53-1-3.34-2.67-8.25-4.94-14.24-.13-.32-.19-.48-.31-.8q-.51-1.29.18-1c1.27.44,3.21,1.18,5.77,2.32s4.45,2,5.67,2.57,3,1.3,5.25,2.35,3.95,1.94,5.08,2.58a9.34,9.34,0,0,1,2.72,2.89c.59.87,2.3,3.42,4.95,8s4.12,7.47,4.62,8.48c.41.85.44,1.19.08,1q-.16-.07-.6-.33a84.1,84.1,0,0,0-13.94-6.82c-1-.37-1.45-.08-1.3.89.09.47.64,2.06,1.6,4.85a30.27,30.27,0,0,0,2.57,6.09,4.49,4.49,0,0,0,2.42,1.9c.21.06.6.16,1.17.29s1.05.26,1.44.39c2.56.87,5.06,1.63,7.46,2.3.19,0,.71.17,1.47.31a7.07,7.07,0,0,1,1.45.37c.46.19.89.78,1.29,1.78-.36-.92.89,2.23,3.21,10,1.07,3.57,2.14,7.26,3.22,11,.27.94.1,1.32-.5,1.11l-3-1.63a49.67,49.67,0,0,0-8.52-3c-1.4-.39-2.1-.59-3.53-1-.91-.24-1.34.11-1.27,1,0,.24.38,1.74,1,4.55a67.2,67.2,0,0,0,1.88,7.41c.78,2,2.49,3.48,5.08,4.46-.05,0,1.63.39,4.91,1.27a30.75,30.75,0,0,0,5,.75,22.35,22.35,0,0,1,4.79.81C211.11,86.8,211.54,87.76,211.91,89.54Z"/><path class="cls-1" d="M242.12,123.16c-1.07-.42-2.55-1.11-4.54-2-2.57-1.18-4.46-1.94-5.18-2.24-2.92-1.14-4.49-1.73-7.8-2.91a14.22,14.22,0,0,1-3.68-1.44,3.53,3.53,0,0,1-1.11-2.6,232.2,232.2,0,0,0-4.1-24.32,198.1,198.1,0,0,0-6.51-23,182.74,182.74,0,0,0-9.63-22.52,171.1,171.1,0,0,0-11.78-19.94c-.54-.78-.58-1-.13-.73s1.15.78,2.1,1.48l2.06,1.49,2,1.34c.84.56,1.48,1,1.95,1.38a7.59,7.59,0,0,1,1.07,1.19l.51.65c7.79,10,13.48,20.93,18.91,32.35a142.9,142.9,0,0,1,6.55,17.45c1.85,5.83,2.92,10.28,3.61,13,.14.57.3,1.15.44,1.73a2.44,2.44,0,0,0,.63,1.23l.68.27c1.55.62,3.8,1.32,6.48,2.11a38.53,38.53,0,0,1,5.74,2.08c.37.18.66.78.87,1.82a96.3,96.3,0,0,1,1.93,20.18c0,1.21-.12,1.89-.31,2S242.57,123.34,242.12,123.16Z"/></g></g></svg>