<svg id="Layer_1" data-name="Layer 1" xmlns="http://www.w3.org/2000/svg" viewBox="0 0 281.95 288.35"><defs><style>.cls-1{fill:none;stroke:#fff;stroke-miterlimit:10;stroke-width:5px;}.cls-2{fill:#fff;}</style></defs><ellipse class="cls-1" cx="140.98" cy="144.18" rx="138.48" ry="141.68"/><path class="cls-2" d="M280.23,460.9c.27,1.11.11,1.53-.5,1.26a31.63,31.63,0,0,1-3.62-2.79c-2.05-1.68-3.34-2.77-3.85-3.27-3.28,1.13-6.33.14-9.78-2.2-5.55-3.78-11.73-10.43-19.68-18.73-7.66-8-15.41-16.39-20.73-26.12s-6.17-18.23-2.71-25.86c3.58-7.88,10.78-13.24,20.1-14.8A21.66,21.66,0,0,1,252.54,370c4.51,2.12,8.16,5.85,11,11.14a7.33,7.33,0,0,1,.93,2.38c.12,1.58-.91,5.4-2.84,10.88s-3.11,7.95-3.83,8a15.3,15.3,0,0,1-2.31-2.72,23.45,23.45,0,0,0-4.93-4.91,12.25,12.25,0,0,0-7.5-2.45c-4.21.09-7.11,2.4-8.36,6.52-1.16,3.79-.74,8.36,1.32,13.85a48.17,48.17,0,0,0,8.51,14.45c3.45,4.08,6.86,6.9,10.43,8.18a8.05,8.05,0,0,0,6.83-.49c-.42-1.32-1.53-4.72-3.23-10.28-1.32-4.3-2.27-7.83-2.83-10.54-.16-.8-.09-1.27.22-1.42a1.07,1.07,0,0,1,.6-.08,30,30,0,0,1,3.52.57,23.44,23.44,0,0,0,3.56.53,28,28,0,0,0,3.76-.21c1.67-.19,2.93-.3,3.78-.31.66,0,1.09.78,1.27,2.34.28,2.27.63,5.69,1.11,10.14s.93,7.68,1.27,9.82c.93,5.74,2.61,14.25,5.23,24.84Z" transform="translate(-192.69 -201.86)"/><path class="cls-2" d="M324.82,430c0,10.24-.07,21.11-2.64,31.14-2.84,9.64-9.17,13.5-18.86,11.1a24.26,24.26,0,0,1-10.18-5c-3.95-3.4-7-8.34-9-14.9-1-3.21-2.14-8.73-3.15-17-.24-1.92-.55-4.78-.9-8.66s-.6-6.85-.8-8.82c-.55-5.7-1.49-14.35-2.6-26.32s-1.67-21.23-1.9-27.43c0-1.29.24-2,.85-2.25,1.77-.6,4.44-1.38,8-2.45a74,74,0,0,0,7.77-2.76c.69-.3,1.05.2,1.09,1.51.3,11.51.52,23,.79,34.55.26,10.87.6,21.74,1.19,32.59.45,8.32,1.22,13.73,2.17,16.59,1.3,3.88,3.58,6,6.91,6.16,4.89.22,7.1-5.22,6.82-16.68-.31-13-.75-25.94-1.2-38.9q-.72-20.56-1.44-41.15c-.07-2,.09-3.13.48-3.36.91-.55,2.46-1.65,6.14-3.73a63.87,63.87,0,0,1,8.36-4.06c.92-.35,1.42.32,1.48,2,.46,11.84.6,23.71.62,35.56,0,11.38,0,22.78,0,34.15,0,2,0,5.1.06,9.14S324.83,428.06,324.82,430Z" transform="translate(-192.69 -201.86)"/><path class="cls-2" d="M351.61,402.94c-.59,11.64-1.28,23.29-2.19,34.92-.87,10.93-2,21.84-3.37,32.7a5.32,5.32,0,0,1-.61,2.24,4.22,4.22,0,0,1-.95.43,19.57,19.57,0,0,1-6.15,1c-3.41.12-5.6-.15-6.5-.62-.66-.34-.95-1.24-.87-2.69-.05.93.41-4,1.16-15.53,1.09-16.74,2.05-33.61,2.29-50.41.16-10.77,0-21.58-.25-32.36-.28-11.18-.68-22.35-1.06-33.52-.05-1.56.29-2.45,1-2.65a38.91,38.91,0,0,1,4.57-.81c2-.25,3.58-.44,4.59-.64s2.51-.58,4.49-1.11a36.49,36.49,0,0,1,4.51-1c.95-.12,1.45.62,1.47,2.22.21,11.49,0,23-.52,34.5C352.81,380.78,352.18,391.87,351.61,402.94Z" transform="translate(-192.69 -201.86)"/><path class="cls-2" d="M414.37,402a140.29,140.29,0,0,1-19.77,44.44c-5.28,7.74-11.76,17.74-20.94,21.56a73.76,73.76,0,0,1-10.43,2.94,46.92,46.92,0,0,1-4.85.75c-2.17.23-3.83.4-4.94.56-.66.1-.88-.53-.65-1.89,1.71-10.09,3.28-20.26,4.72-30.37,1.54-10.71,2.79-21.55,3.67-32.35.95-11.79,1.44-23.7,1.67-35.44.25-12.18.19-24.54,0-36.8,0-1.52.46-2.5,1.39-2.8,2.24-.74,6.14-1.15,11.39-1.07,10,.14,16.22,1.2,19,2.14A28,28,0,0,1,411,348.08c3.3,6.49,5.34,15.14,6,25.28A100.36,100.36,0,0,1,414.37,402Zm-14.86.83c1.83-10.45,1.8-19.45-.28-26.57-2.15-7.37-5.91-11.48-11-11.61-4.68-.13-7.15,1.32-7.32,4.16-.25,4.09-.69,10.23-1.49,18.26s-1.51,13.93-2,17.83-1.17,9.57-2.25,17-2.05,12.94-2.73,16.6c-.49,2.67,1.28,3.71,5.23,3.05,4.28-.7,8.4-4.8,12.56-12A86.21,86.21,0,0,0,399.51,402.8Z" transform="translate(-192.69 -201.86)"/><path class="cls-2" d="M438.56,421.11c-1.12,1.61-3.32,4.65-6.91,8.93-3.9,4.64-6.53,7.33-7.5,8.34q-1.18,1.22-1.68,1.68c-.14.14-.33.31-.56.51a119.89,119.89,0,0,1-10.17,8.19c-1.34,1-3.34,2.4-6.09,4.14s-4.88,3-6.33,3.76c-.62.36-.57-.16.15-1.54,4.33-8.28,8.35-16.94,11.8-25.44a232.07,232.07,0,0,0,9.39-27.56,272.85,272.85,0,0,0,6.8-37.36c.57-4.79,1.19-12.17,1.42-22.15,0-.53,0-.79,0-1.32,0-1.46.35-2.1,1.05-1.92,1.91.49,4.75,1.35,8.27,2.59s6,2.09,7.56,2.58,3.9,1.1,6.7,1.81,4.63,1.27,5.81,1.69c.85.3,1.3,1.45,1.38,3.42a96.8,96.8,0,0,1-.3,10.34A98.85,98.85,0,0,1,458.18,372c-.18,1-.44,1.48-.77,1.46a2.46,2.46,0,0,1-.51-.09,79.31,79.31,0,0,0-13.48-2.9c-1.15-.13-2,.48-2.49,1.82-.22.65-.63,2.77-1.36,6.3-.75,3.69-1.11,6.11-1,7.27a1.52,1.52,0,0,0,1.72,1.48q.31,0,1.26-.15a11.93,11.93,0,0,1,1.52-.16,44.52,44.52,0,0,0,7.55-.88c.21-.07.78-.2,1.58-.47a7.86,7.86,0,0,1,1.49-.4c.41,0,.46.47.14,1.52.29-1-.72,2.61-4,10.33-1.53,3.55-3.12,7-4.79,10.4a2.84,2.84,0,0,1-1.38,1.54c-.8.1-1.22.15-2.07.21s-3.17.73-7.2,1.77c-1.26.32-1.9.48-3.21.79a3.23,3.23,0,0,0-2.08,1.82c-.12.25-.73,1.8-1.92,4.57-1.59,3.69-2.6,6-2.9,6.94-.52,1.67.22,2.23,2.17,1.62,0,0,1.38-.56,4.08-1.86a42.33,42.33,0,0,0,4.56-2.71c2.05-1.35,3.47-2.28,4.32-2.78C439.76,419.18,439.49,419.76,438.56,421.11Z" transform="translate(-192.69 -201.86)"/><path class="cls-2" d="M254.52,262.11c-.39,1.05-.78,1.67-1.19,1.86-.7.31-3.38,1.13-7.73,2.66a155,155,0,0,0-13.44,60.91,194.41,194.41,0,0,0,2.31,33.31,4.68,4.68,0,0,1,0,2.25c-.05.13-.37.33-.93.61a19.83,19.83,0,0,1-6.18,1.54,18.08,18.08,0,0,1-6.53-.07c-.69-.21-1.19-1.11-1.41-2.64a131,131,0,0,1-.93-32.1,175.17,175.17,0,0,1,5.69-30.84A147.26,147.26,0,0,1,235,272.33c-3.92,2.82-6.87,4.77-8.83,5.88-.26.15-.25,0,0-.48s1.61-2.48,3.83-5.52c2.44-3.33,4-5.27,4.55-5.94,1.62-2.07,3.3-4.12,5.05-6.11,2.79-3.19,4.39-4.8,4.61-5l.22-.2c1.3-1.11,4.15-3.46,8.68-6.85,1.28-1,4-3.15,8.08-6.4,2.2-1.74,3.32-2.58,3.34-2.59.3-.19.44-.25.42-.16a14.16,14.16,0,0,1-.67,1.29c-.69,1.24-1.67,3-2.87,5.32-1.32,2.56-2.2,4.42-2.7,5.51s-1.34,3-2.25,5.47S255,260.85,254.52,262.11Z" transform="translate(-192.69 -201.86)"/><path class="cls-2" d="M291.93,345.83a1.41,1.41,0,0,1-.52,1.25c-.79.75-2.9,1.94-6.4,3.39a20.6,20.6,0,0,1-6.26,1.85c-.54,0-.87-.05-1-.15a5.57,5.57,0,0,1-.8-1.74c-.75-2.36-1.82-5.9-3.1-10.63-1.66-6.13-4.09-15.44-6.1-27.25-.43-2.35-1.36-3.4-2.85-3.17.69-.09-.5.36-3.56,1.32-.34.11-.56,1.77-.56,5a169.68,169.68,0,0,0,1.25,19.64c1,8.71,2.14,15.18,2.85,19.52.17,1.09.17,1.86,0,2a5.84,5.84,0,0,1-1,.48,36.56,36.56,0,0,1-6.57,2.18c-3.45.88-5.56,1.14-6.33.92s-1.28-1.12-1.53-2.69a179.58,179.58,0,0,1-2.19-32.09,230.43,230.43,0,0,1,2.52-31.13c3-18.37,7.85-36.29,15.91-53.35.19-.4.29-.59.48-1a6.6,6.6,0,0,1,1.57-2.05,59.11,59.11,0,0,1,7.65-4.75c3.05-1.68,5.51-2.86,7.33-3.64,3.77-1.63,6-.4,7.25,3.76,1.39,4.69,1.16,12.61-.42,24.65-1.06,8-2,14.92-3.26,20.35a93.08,93.08,0,0,1-5.75,17.08,7.84,7.84,0,0,0-.81,3.06c0-.06.95,7.14,4.91,22.28S291.67,344.19,291.93,345.83Zm-15.34-78.06c1-7,1.2-11.27.2-13.23-.76-1.5-2.39-1.77-4.9-.79a5.6,5.6,0,0,0-3.53,3.48,131.12,131.12,0,0,0-3.92,16.45c-.25,1.32-.6,3.28-1,5.91s-.66,4.62-.83,5.93c0,.3.28.49.93.54a10.12,10.12,0,0,0,4.07-.61C272.39,283.83,275.1,277.69,276.59,267.77Z" transform="translate(-192.69 -201.86)"/><path class="cls-2" d="M340.93,323.72a2.43,2.43,0,0,1-.75,2.31c-.73.62-3.19,1.35-7.29,2.51-3.75,1-6.18,1.68-7.28,1.58-.92-.09-1.63-1.2-2.11-3.32-1.79-8.05-2.82-12.42-3.34-12.79s-4.33.75-10.25,3.42c-4,1.8-4.47,2.42-4.58,3.06a73.63,73.63,0,0,0,.26,10.26c.35,5.23.47,8.17.11,8.84s-3.34,2.85-7.56,5c-3.32,1.71-5.29,1.5-5.47-.24-2.06-19.85.53-42.54,3.76-62.65,3.14-19.55,7.6-39.89,14.17-59.15.57-1.74,1-2.6,1.3-2.65a10.27,10.27,0,0,1,2.2-.06,12.3,12.3,0,0,0,2.25,0,19.83,19.83,0,0,0,2.24-.51,15.45,15.45,0,0,1,2.22-.47c.35,0,.55.62.64,2a327,327,0,0,0,6.44,50.73C331.38,288.94,337.9,307.29,340.93,323.72Zm-29.06-69.48c-.66,2.41-1.94,7.62-3.38,16.08a131.24,131.24,0,0,0-2,16.11c0,1.05.53,1.4,1.81,1.1.65-.15,2-.54,3.69-1.12s2.51-1.26,2.68-2.22a6.92,6.92,0,0,0,.06-1.21c0-1.87-.63-6.87-1.43-14.66C312.51,260.79,312.16,256.2,311.87,254.24Z" transform="translate(-192.69 -201.86)"/><path class="cls-2" d="M367.84,323.15c-3.58.09-5.65.13-6.18-.06s-1.05-.94-1.56-2.28q-6.64-18-12.85-36.22c-3.38-10-7.6-21.13-8.52-31.06-.33-3.58-.18-9.55-.11-16.65s.17-12,.22-15.16c0-1.49.22-2.21.6-2.19a44.77,44.77,0,0,1,5.18.59c2.32.37,4,.65,5.19.79.46.05.74.48.81,1.3.29,3.16.63,8,1,15s.55,13,1.09,16.57c1.62,10.87,7,22.49,11,33.41.8-5.15,1.62-11.34,2.35-18.28,1-9.36,1.14-14.6.81-16.61-.54-3.33-1.37-8.3-2.52-14.49s-2-10.48-2.56-13.28c-.21-1-.24-1.58-.1-1.66l.87.19c1,.22,2.48.45,4.42.76a35.11,35.11,0,0,1,4.32.91c.53.16.94.68,1.22,1.58.92,2.87,2.28,7.3,4,13.72s3.1,11.78,3.68,15.14c1.7,9.89.17,21.36-.8,31.89q-1.94,16.71-4.05,33.38a10.61,10.61,0,0,1-.29,2c-.08.14-.4.26-1,.35A52.1,52.1,0,0,1,367.84,323.15Z" transform="translate(-192.69 -201.86)"/><path class="cls-2" d="M429.18,308.4c.45,2.12,1.08,6,1.67,11.69.63,6.18.73,9.93.57,11.06-.13.89-.43,1.29-.87,1.18a5.32,5.32,0,0,1-1-.49c-1.59-.92-6-2.44-14.22-4.15-1.78-.38-4.46-.95-8.13-1.64s-6.49-1.13-8.38-1.39c-.82-.11-1.33-.93-1.53-2.45-.77-5.9-1.84-14.83-3.52-26.28s-3.27-19.56-4.46-24.88c-2.15-9.61-4.77-19.14-7.75-28.53-1.06-3.34-2.68-8.25-5-14.24-.12-.32-.18-.48-.31-.8q-.51-1.29.18-1c1.28.44,3.21,1.18,5.78,2.32s4.45,2,5.67,2.57,3,1.3,5.25,2.35,3.94,1.94,5.08,2.58a9.33,9.33,0,0,1,2.71,2.89c.6.87,2.31,3.42,4.95,8s4.13,7.47,4.62,8.48c.42.85.44,1.19.08,1l-.59-.32a83.83,83.83,0,0,0-13.94-6.83c-1-.37-1.45-.07-1.3.89.08.47.63,2.06,1.59,4.85A31.5,31.5,0,0,0,399,261.3a4.55,4.55,0,0,0,2.43,1.9c.2.06.59.16,1.17.29a14.53,14.53,0,0,1,1.43.39c2.57.87,5.06,1.63,7.46,2.3.2,0,.71.17,1.48.31a7.43,7.43,0,0,1,1.45.37c.46.19.89.78,1.28,1.78-.36-.91.9,2.23,3.22,10,1.06,3.57,2.14,7.26,3.21,11,.27.94.1,1.32-.5,1.12-1.19-.66-1.8-1-3-1.64a49.78,49.78,0,0,0-8.51-3c-1.4-.39-2.11-.59-3.53-1-.92-.24-1.35.11-1.28,1,0,.24.38,1.74,1,4.55a64.89,64.89,0,0,0,1.88,7.41c.77,2,2.48,3.48,5.07,4.46,0,0,1.64.39,4.91,1.27a30.72,30.72,0,0,0,5,.75,22.88,22.88,0,0,1,4.78.81C428.38,305.66,428.81,306.62,429.18,308.4Z" transform="translate(-192.69 -201.86)"/><path class="cls-2" d="M459.39,342c-1.07-.43-2.54-1.12-4.53-2-2.58-1.18-4.47-1.94-5.19-2.24-2.92-1.14-4.49-1.73-7.8-2.9a15.3,15.3,0,0,1-3.68-1.44,3.54,3.54,0,0,1-1.1-2.61A233.24,233.24,0,0,0,433,306.49a198.1,198.1,0,0,0-6.51-23A181.71,181.71,0,0,0,416.85,261a170.29,170.29,0,0,0-11.79-19.95c-.53-.78-.58-1-.13-.73s1.15.78,2.11,1.48l2.06,1.49c.48.34,1.15.78,2,1.34s1.48,1,1.95,1.38a8.6,8.6,0,0,1,1.08,1.19l.5.65c7.79,10,13.49,20.93,18.91,32.35a141.31,141.31,0,0,1,6.56,17.45c1.84,5.83,2.91,10.28,3.6,13l.45,1.73a2.29,2.29,0,0,0,.63,1.23l.67.27c1.56.62,3.8,1.32,6.49,2.11a39.41,39.41,0,0,1,5.74,2.08c.36.18.65.78.86,1.82a96.38,96.38,0,0,1,1.94,20.18c0,1.21-.13,1.89-.31,2.05S459.84,342.2,459.39,342Z" transform="translate(-192.69 -201.86)"/></svg>