<svg width="40" height="40" viewBox="0 0 40 40" fill="none" xmlns="http://www.w3.org/2000/svg">
<path d="M0 20C0 8.9543 8.9543 0 20 0C31.0457 0 40 8.9543 40 20C40 31.0457 31.0457 40 20 40C8.9543 40 0 31.0457 0 20Z" fill="white"/>
<path d="M20 14.6844C21.6274 14.6844 22.7252 15.3874 23.3511 15.9748L25.7971 13.5867C24.2948 12.1904 22.34 11.3333 20 11.3333C16.6104 11.3333 13.683 13.2785 12.2578 16.1096L15.06 18.2859C15.763 16.1963 17.7082 14.6844 20 14.6844Z" fill="#EA4335"/>
<path d="M28.32 20.1926C28.32 19.48 28.2622 18.96 28.137 18.4207H20V21.637H24.7763C24.68 22.4363 24.16 23.64 23.0044 24.4489L25.7393 26.5674C27.3763 25.0556 28.32 22.8311 28.32 20.1926Z" fill="#4285F4"/>
<path d="M15.0695 21.7141C14.8866 21.1748 14.7807 20.597 14.7807 20C14.7807 19.403 14.8866 18.8252 15.0599 18.2859L12.2577 16.1096C11.6703 17.2844 11.3333 18.6037 11.3333 20C11.3333 21.3963 11.6703 22.7156 12.2577 23.8904L15.0695 21.7141Z" fill="#FBBC05"/>
<path d="M19.9999 28.6667C22.3399 28.6667 24.3044 27.8963 25.7392 26.5674L23.0044 24.4489C22.2725 24.9593 21.2903 25.3156 19.9999 25.3156C17.7081 25.3156 15.7629 23.8037 15.0696 21.7141L12.2673 23.8904C13.6925 26.7215 16.6103 28.6667 19.9999 28.6667Z" fill="#34A853"/>
</svg>
