<svg xmlns="http://www.w3.org/2000/svg" viewBox="0 0 281.95 351.08"><defs><style>.cls-1{fill:none;stroke:#231f20;stroke-miterlimit:10;stroke-width:5px;}.cls-2{fill:#231f20;}</style></defs><g id="Layer_2" data-name="Layer 2"><g id="Layer_1-2" data-name="Layer 1"><ellipse class="cls-1" cx="140.98" cy="144.18" rx="138.48" ry="141.68"/><path class="cls-2" d="M87.54,259c.27,1.11.11,1.53-.5,1.26a32.25,32.25,0,0,1-3.62-2.78c-2-1.69-3.34-2.78-3.85-3.28-3.28,1.14-6.33.15-9.78-2.2-5.55-3.77-11.73-10.43-19.68-18.73-7.66-8-15.41-16.38-20.73-26.12S23.21,189,26.67,181.34c3.58-7.88,10.78-13.25,20.1-14.8a21.66,21.66,0,0,1,13.08,1.62c4.51,2.13,8.16,5.86,11,11.14a7.33,7.33,0,0,1,.93,2.38c.12,1.58-.91,5.4-2.84,10.89s-3.11,8-3.83,8a14.93,14.93,0,0,1-2.31-2.71,23.52,23.52,0,0,0-4.93-4.92,12.17,12.17,0,0,0-7.5-2.44c-4.21.09-7.11,2.39-8.36,6.51-1.16,3.8-.74,8.36,1.32,13.86a48.11,48.11,0,0,0,8.51,14.44c3.45,4.08,6.86,6.91,10.43,8.18A8.05,8.05,0,0,0,69.1,233c-.42-1.32-1.53-4.71-3.23-10.27-1.32-4.3-2.27-7.84-2.83-10.54-.16-.8-.09-1.28.22-1.42a1,1,0,0,1,.6-.08,28,28,0,0,1,3.52.57,24.46,24.46,0,0,0,3.56.52,28,28,0,0,0,3.76-.21c1.67-.18,2.93-.3,3.78-.3.66,0,1.09.77,1.27,2.33.28,2.28.63,5.69,1.11,10.14s.93,7.68,1.27,9.82c.93,5.74,2.61,14.25,5.23,24.84Z"/><path class="cls-2" d="M132.13,228.17c0,10.25-.07,21.11-2.64,31.14-2.84,9.65-9.17,13.51-18.86,11.1a24.25,24.25,0,0,1-10.18-5c-4-3.41-7-8.35-9-14.91-1-3.21-2.14-8.72-3.16-17-.23-1.92-.54-4.78-.89-8.66s-.61-6.85-.8-8.81c-.55-5.7-1.49-14.36-2.6-26.33s-1.67-21.22-1.9-27.43c0-1.29.24-2,.85-2.25,1.77-.59,4.44-1.38,8-2.45a74.41,74.41,0,0,0,7.77-2.75c.69-.31,1,.19,1.09,1.5.3,11.51.52,23,.79,34.55.26,10.87.6,21.75,1.19,32.59.45,8.32,1.22,13.74,2.17,16.59,1.3,3.88,3.58,6,6.91,6.17,4.89.21,7.1-5.23,6.82-16.69-.31-13-.75-25.94-1.2-38.9q-.72-20.56-1.44-41.14c-.07-2,.09-3.13.48-3.37.91-.55,2.46-1.65,6.14-3.72a61.33,61.33,0,0,1,8.36-4.06c.92-.35,1.42.32,1.48,2,.46,11.84.6,23.71.62,35.57,0,11.38,0,22.77,0,34.15,0,2,0,5.09.06,9.13S132.14,226.21,132.13,228.17Z"/><path class="cls-2" d="M158.92,201.09c-.59,11.63-1.28,23.29-2.19,34.92-.87,10.92-2,21.83-3.37,32.7a5.31,5.31,0,0,1-.61,2.23,3.77,3.77,0,0,1-.95.43,19.57,19.57,0,0,1-6.15,1.05c-3.41.12-5.6-.14-6.5-.61-.66-.35-1-1.25-.87-2.69-.05.92.41-4,1.16-15.54,1.09-16.74,2.05-33.61,2.29-50.4.15-10.77,0-21.58-.25-32.37-.28-11.17-.68-22.35-1.06-33.52,0-1.55.29-2.44,1-2.64a35.08,35.08,0,0,1,4.57-.81c2.05-.25,3.58-.45,4.59-.64s2.51-.58,4.49-1.12a36.49,36.49,0,0,1,4.51-1c.95-.12,1.45.63,1.47,2.22.21,11.49,0,23-.52,34.5C160.12,178.92,159.49,190,158.92,201.09Z"/><path class="cls-2" d="M221.68,200.11a140.2,140.2,0,0,1-19.77,44.44c-5.28,7.74-11.76,17.75-20.94,21.56a74.66,74.66,0,0,1-10.43,2.95,44.82,44.82,0,0,1-4.85.74c-2.17.23-3.83.4-4.94.56-.66.1-.88-.53-.65-1.88,1.71-10.1,3.28-20.27,4.72-30.38,1.54-10.71,2.79-21.55,3.67-32.35.95-11.78,1.44-23.69,1.67-35.44.25-12.17.19-24.53.05-36.79,0-1.53.46-2.5,1.39-2.81,2.24-.74,6.14-1.15,11.39-1.07,10,.14,16.22,1.2,19,2.14a28,28,0,0,1,16.3,14.44c3.3,6.49,5.34,15.14,6,25.28A100.33,100.33,0,0,1,221.68,200.11Zm-14.86.84c1.83-10.46,1.8-19.45-.28-26.58-2.15-7.37-5.91-11.47-11-11.61-4.68-.12-7.15,1.32-7.32,4.17-.25,4.09-.69,10.22-1.49,18.26s-1.51,13.93-2,17.82-1.17,9.57-2.25,17-2.05,12.94-2.73,16.6c-.49,2.67,1.28,3.71,5.23,3.06,4.28-.71,8.4-4.81,12.56-12C202,219.84,205.28,209.73,206.82,201Z"/><path class="cls-2" d="M245.87,219.26c-1.12,1.61-3.32,4.64-6.91,8.92-3.9,4.65-6.53,7.34-7.5,8.34-.79.81-1.35,1.38-1.68,1.69l-.56.51a123.23,123.23,0,0,1-10.17,8.18c-1.34,1-3.34,2.4-6.09,4.14s-4.88,3-6.33,3.77c-.62.35-.57-.16.15-1.54,4.33-8.28,8.35-17,11.8-25.45A231.46,231.46,0,0,0,228,200.26a272.57,272.57,0,0,0,6.8-37.36c.57-4.79,1.19-12.16,1.42-22.15,0-.53,0-.79,0-1.32,0-1.45.35-2.09,1-1.92,1.91.49,4.75,1.36,8.27,2.59s6,2.1,7.56,2.58,3.9,1.1,6.7,1.81,4.63,1.27,5.81,1.69c.85.3,1.3,1.45,1.38,3.42a96.8,96.8,0,0,1-.3,10.34,99.23,99.23,0,0,1-1.19,10.16c-.18,1-.44,1.47-.77,1.46a3.89,3.89,0,0,1-.51-.1,79.3,79.3,0,0,0-13.48-2.89c-1.15-.13-2,.47-2.49,1.82-.22.65-.63,2.77-1.36,6.3-.75,3.69-1.11,6.1-1,7.27a1.51,1.51,0,0,0,1.72,1.47,12.66,12.66,0,0,0,1.26-.15c.63-.09,1.13-.14,1.52-.16a44.52,44.52,0,0,0,7.55-.88c.21-.06.78-.2,1.58-.46a7.16,7.16,0,0,1,1.49-.4c.41,0,.46.47.14,1.51.29-.95-.72,2.62-4,10.34-1.53,3.54-3.12,7-4.79,10.39a2.87,2.87,0,0,1-1.38,1.55c-.8.1-1.22.14-2.07.2s-3.17.73-7.2,1.77c-1.26.33-1.9.49-3.21.79a3.25,3.25,0,0,0-2.08,1.83c-.12.25-.73,1.79-1.92,4.56-1.59,3.7-2.6,6-2.9,6.94-.52,1.67.22,2.23,2.17,1.63,0,0,1.38-.57,4.08-1.86a44.69,44.69,0,0,0,4.56-2.72c2.05-1.34,3.47-2.27,4.32-2.77C247.07,217.32,246.8,217.9,245.87,219.26Z"/><path class="cls-2" d="M61.83,60.25c-.39,1.06-.78,1.68-1.19,1.86-.7.31-3.38,1.14-7.73,2.66a155,155,0,0,0-13.44,60.91A194.41,194.41,0,0,0,41.78,159a4.71,4.71,0,0,1,0,2.26c-.05.13-.37.33-.93.6a19.55,19.55,0,0,1-6.18,1.54,18.39,18.39,0,0,1-6.53-.06c-.69-.22-1.19-1.12-1.41-2.65a131,131,0,0,1-.93-32.1,175.34,175.34,0,0,1,5.69-30.84A146.89,146.89,0,0,1,42.35,70.48c-3.92,2.81-6.87,4.76-8.83,5.88-.26.15-.25,0,0-.48s1.61-2.49,3.83-5.52c2.44-3.33,4-5.27,4.55-6,1.62-2.07,3.3-4.12,5-6.11,2.79-3.19,4.39-4.79,4.61-5l.22-.19c1.3-1.12,4.15-3.47,8.68-6.86,1.28-1,4-3.15,8.08-6.4,2.2-1.74,3.32-2.58,3.34-2.59.3-.19.44-.24.42-.16a14.16,14.16,0,0,1-.67,1.29c-.69,1.25-1.67,3-2.87,5.33-1.32,2.55-2.2,4.42-2.7,5.51-.57,1.24-1.34,3-2.25,5.46S62.29,59,61.83,60.25Z"/><path class="cls-2" d="M99.24,144a1.4,1.4,0,0,1-.52,1.25c-.79.76-2.9,1.95-6.4,3.39a20.6,20.6,0,0,1-6.26,1.85c-.54,0-.87-.05-1-.15a5.59,5.59,0,0,1-.8-1.73c-.75-2.37-1.82-5.91-3.1-10.63-1.66-6.13-4.09-15.45-6.1-27.26-.43-2.35-1.36-3.39-2.85-3.17.69-.09-.5.36-3.56,1.33-.34.11-.56,1.77-.56,5a169.43,169.43,0,0,0,1.25,19.64c1,8.72,2.14,15.19,2.85,19.53.17,1.08.17,1.85,0,2a5.83,5.83,0,0,1-1,.49,36.72,36.72,0,0,1-6.57,2.17c-3.45.88-5.56,1.15-6.33.93s-1.28-1.12-1.53-2.7a179.47,179.47,0,0,1-2.19-32.08,230.3,230.3,0,0,1,2.52-31.13C60.2,74.35,65,56.43,73.06,39.37l.48-1a6.56,6.56,0,0,1,1.57-2,57.9,57.9,0,0,1,7.65-4.75c3-1.68,5.51-2.87,7.33-3.65,3.77-1.63,6-.39,7.25,3.77,1.39,4.69,1.16,12.6-.42,24.64-1.06,8-2,14.92-3.26,20.35A93.16,93.16,0,0,1,87.91,93.8a7.76,7.76,0,0,0-.81,3c0-.06,1,7.14,4.91,22.28S99,142.34,99.24,144ZM83.9,65.91c1-6.95,1.2-11.27.2-13.23-.76-1.5-2.39-1.77-4.9-.78a5.56,5.56,0,0,0-3.53,3.47,132,132,0,0,0-3.92,16.46c-.25,1.32-.6,3.27-1,5.9s-.66,4.62-.83,5.93c0,.3.28.49.93.54a10.1,10.1,0,0,0,4.07-.6C79.7,82,82.41,75.83,83.9,65.91Z"/><path class="cls-2" d="M148.24,121.86a2.42,2.42,0,0,1-.75,2.31c-.73.62-3.19,1.36-7.29,2.51-3.75,1.06-6.18,1.68-7.28,1.58-.92-.08-1.63-1.19-2.11-3.32-1.79-8-2.82-12.42-3.34-12.79s-4.33.76-10.25,3.42c-4,1.8-4.47,2.43-4.58,3.06a73.77,73.77,0,0,0,.26,10.27c.35,5.22.47,8.17.11,8.84s-3.34,2.84-7.56,5c-3.32,1.71-5.29,1.51-5.47-.24-2.06-19.84.53-42.54,3.76-62.65,3.14-19.55,7.6-39.89,14.17-59.15.57-1.73,1-2.6,1.3-2.65a9.78,9.78,0,0,1,2.2,0,13.28,13.28,0,0,0,2.25,0,20.39,20.39,0,0,0,2.24-.52,16.56,16.56,0,0,1,2.22-.46c.35,0,.55.61.64,2a327.13,327.13,0,0,0,6.44,50.74C138.69,87.09,145.21,105.44,148.24,121.86ZM119.18,52.38c-.66,2.41-1.94,7.63-3.38,16.08a131.06,131.06,0,0,0-2,16.12c0,1,.53,1.39,1.81,1.1.65-.15,2-.55,3.69-1.13s2.51-1.26,2.68-2.22a6.86,6.86,0,0,0,.06-1.21c0-1.86-.63-6.86-1.43-14.65C119.82,58.94,119.47,54.35,119.18,52.38Z"/><path class="cls-2" d="M175.15,121.29a37.37,37.37,0,0,1-6.18-.05c-.53-.19-1.05-.95-1.56-2.29q-6.65-18-12.85-36.21c-3.38-10-7.6-21.14-8.52-31.06-.33-3.58-.18-9.56-.11-16.65s.17-12,.22-15.16c0-1.49.22-2.21.6-2.2a47.15,47.15,0,0,1,5.18.59c2.32.37,4,.66,5.19.79.46.05.73.49.81,1.3.29,3.16.63,8,1,15s.55,13,1.09,16.58c1.62,10.86,7,22.49,11,33.4.8-5.15,1.62-11.33,2.35-18.28,1-9.36,1.13-14.6.81-16.61-.54-3.33-1.37-8.3-2.52-14.49s-2-10.48-2.56-13.27c-.21-1-.24-1.59-.1-1.66l.87.18c1,.22,2.48.45,4.42.76a34.74,34.74,0,0,1,4.32.92c.53.15.94.67,1.22,1.57.92,2.88,2.28,7.3,4,13.73s3.1,11.77,3.68,15.13c1.7,9.9.17,21.36-.8,31.9q-1.94,16.7-4.05,33.38a11,11,0,0,1-.29,2c-.08.13-.4.25-1,.35A54.91,54.91,0,0,1,175.15,121.29Z"/><path class="cls-2" d="M236.49,106.54c.45,2.13,1.08,6,1.67,11.69.63,6.19.73,9.93.57,11.06-.13.9-.43,1.3-.87,1.18a5.06,5.06,0,0,1-1-.48c-1.59-.93-6.05-2.44-14.22-4.16-1.78-.37-4.46-1-8.13-1.64s-6.49-1.12-8.38-1.38q-1.23-.16-1.53-2.46c-.77-5.89-1.84-14.82-3.52-26.28s-3.27-19.56-4.46-24.87c-2.15-9.61-4.77-19.14-7.75-28.54-1.06-3.33-2.68-8.25-4.95-14.24-.12-.32-.18-.48-.31-.79-.34-.87-.28-1.21.18-1.05,1.28.43,3.21,1.18,5.78,2.32s4.45,2,5.67,2.56,3,1.3,5.25,2.35,3.94,1.94,5.08,2.59a9.27,9.27,0,0,1,2.71,2.88c.6.88,2.31,3.43,5,8s4.13,7.48,4.62,8.49c.42.84.44,1.19.08,1l-.59-.32a84.21,84.21,0,0,0-13.94-6.83c-1-.37-1.45-.07-1.3.9.08.46.63,2.05,1.59,4.85a31.63,31.63,0,0,0,2.57,6.08,4.5,4.5,0,0,0,2.43,1.9c.2.07.59.16,1.17.29a14.53,14.53,0,0,1,1.43.39q3.85,1.3,7.46,2.31c.2,0,.71.16,1.48.3a9.2,9.2,0,0,1,1.45.37A3,3,0,0,1,223,66.78c-.36-.91.9,2.23,3.22,10,1.06,3.58,2.14,7.26,3.21,11,.27,1,.1,1.32-.5,1.12-1.19-.66-1.8-1-3-1.64a50.72,50.72,0,0,0-8.51-3c-1.4-.39-2.11-.58-3.53-1-.92-.25-1.35.1-1.28,1,0,.23.38,1.73,1,4.55a65.5,65.5,0,0,0,1.88,7.41c.77,2,2.48,3.48,5.07,4.46,0,0,1.64.38,4.91,1.27a30.91,30.91,0,0,0,5,.74,23.57,23.57,0,0,1,4.78.81C235.69,103.81,236.12,104.76,236.49,106.54Z"/><path class="cls-2" d="M266.7,140.17c-1.07-.42-2.54-1.11-4.53-2-2.58-1.17-4.47-1.93-5.19-2.23-2.92-1.15-4.49-1.74-7.8-2.91a14.5,14.5,0,0,1-3.68-1.44,3.54,3.54,0,0,1-1.1-2.61,233.68,233.68,0,0,0-4.11-24.32,199.31,199.31,0,0,0-6.51-23,181.71,181.71,0,0,0-9.62-22.51,171.16,171.16,0,0,0-11.79-19.95c-.53-.77-.58-1-.13-.72s1.15.78,2.11,1.47,1.64,1.2,2.06,1.49,1.15.78,2,1.34,1.48,1,2,1.38a8.28,8.28,0,0,1,1.08,1.2l.5.65c7.79,10,13.49,20.92,18.91,32.35a140.56,140.56,0,0,1,6.56,17.44c1.84,5.83,2.91,10.28,3.6,13l.45,1.72a2.29,2.29,0,0,0,.63,1.23l.67.27c1.56.62,3.8,1.33,6.49,2.12a38.25,38.25,0,0,1,5.74,2.08c.36.18.65.78.86,1.81a96.41,96.41,0,0,1,1.94,20.19,4,4,0,0,1-.31,2.05C267.4,140.4,267.15,140.35,266.7,140.17Z"/><rect class="cls-2" x="219.24" y="262.68" width="19.45" height="93.34" rx="9.72" transform="translate(-124 155.93) rotate(-30)"/></g></g></svg>